<?xml version="1.0"?>
<svg xmlns="http://www.w3.org/2000/svg" viewBox="0 0 64 64">
    <path d="M 3 2 C 1.346 2 0 3.346 0 5 C 0 6.654 1.346 8 3 8 C 4.102 8 5.056125 7.3967656 5.578125 6.5097656 C 7.149125 7.2557656 8.2964063 8.7794687 8.4414062 10.605469 L 11.232422 45.867188 C 11.625422 50.828187 15.348078 54.846109 20.080078 55.787109 C 20.461078 58.168109 22.513 60 25 60 C 27.414 60 29.433438 58.279 29.898438 56 L 40.101562 56 C 40.566563 58.279 42.585 60 45 60 C 47.757 60 50 57.757 50 55 C 50 52.243 47.757 50 45 50 C 42.586 50 40.566563 51.721 40.101562 54 L 29.898438 54 C 29.433438 51.721 27.415 50 25 50 C 22.676 50 20.733781 51.601906 20.175781 53.753906 C 17.196781 53.057906 14.743797 50.87 13.716797 48 L 52.382812 48 C 53.788812 48 55.022406 47.002906 55.316406 45.628906 L 60.808594 20 L 61 20 C 62.654 20 64 18.654 64 17 C 64 15.346 62.654 14 61 14 L 51.414062 14 L 40.414062 3 C 39.635062 2.22 38.364938 2.22 37.585938 3 L 31 9.5859375 L 28.414062 7 C 27.635063 6.22 26.364937 6.22 25.585938 7 L 18.585938 14 L 10.716797 14 L 10.435547 10.447266 C 10.218547 7.7032656 8.3972656 5.41375 5.9472656 4.46875 C 5.6942656 3.06775 4.472 2 3 2 z M 3 3.8320312 C 3.644 3.8320312 4.1679688 4.357 4.1679688 5 C 4.1679688 5.643 3.644 6.1679688 3 6.1679688 C 2.356 6.1679688 1.8320313 5.643 1.8320312 5 C 1.8320312 4.357 2.356 3.8320312 3 3.8320312 z M 39 4.4140625 L 48.585938 14 L 29.414062 14 L 39 4.4140625 z M 27 8.4140625 L 29.585938 11 L 26.585938 14 L 21.414062 14 L 27 8.4140625 z M 10.873047 16 L 61 16 C 61.552 16 62 16.449 62 17 C 62 17.551 61.552 18 61 18 L 11.03125 18 L 10.873047 16 z M 11.191406 20 L 58.763672 20 L 53.361328 45.210938 C 53.262328 45.668937 52.851812 46 52.382812 46 L 13.261719 46 C 13.250719 45.903 13.234563 45.808938 13.226562 45.710938 L 11.191406 20 z M 14 22 C 13.447 22 13 22.448 13 23 L 13 25 C 13 25.552 13.447 26 14 26 C 14.553 26 15 25.552 15 25 L 15 23 C 15 22.448 14.553 22 14 22 z M 19 22 C 18.447 22 18 22.448 18 23 L 18 25 C 18 25.552 18.447 26 19 26 C 19.553 26 20 25.552 20 25 L 20 23 C 20 22.448 19.553 22 19 22 z M 24 22 C 23.447 22 23 22.448 23 23 L 23 25 C 23 25.552 23.447 26 24 26 C 24.553 26 25 25.552 25 25 L 25 23 C 25 22.448 24.553 22 24 22 z M 29 22 C 28.447 22 28 22.448 28 23 L 28 25 C 28 25.552 28.447 26 29 26 C 29.553 26 30 25.552 30 25 L 30 23 C 30 22.448 29.553 22 29 22 z M 34 22 C 33.447 22 33 22.448 33 23 L 33 25 C 33 25.552 33.447 26 34 26 C 34.553 26 35 25.552 35 25 L 35 23 C 35 22.448 34.553 22 34 22 z M 39 22 C 38.447 22 38 22.448 38 23 L 38 25 C 38 25.552 38.447 26 39 26 C 39.553 26 40 25.552 40 25 L 40 23 C 40 22.448 39.553 22 39 22 z M 44 22 C 43.447 22 43 22.448 43 23 L 43 25 C 43 25.552 43.447 26 44 26 C 44.553 26 45 25.552 45 25 L 45 23 C 45 22.448 44.553 22 44 22 z M 49 22 C 48.447 22 48 22.448 48 23 L 48 25 C 48 25.552 48.447 26 49 26 C 49.553 26 50 25.552 50 25 L 50 23 C 50 22.448 49.553 22 49 22 z M 54 22 C 53.447 22 53 22.448 53 23 L 53 25 C 53 25.552 53.447 26 54 26 C 54.553 26 55 25.552 55 25 L 55 23 C 55 22.448 54.553 22 54 22 z M 15 42 C 14.447 42 14 42.448 14 43 C 14 43.552 14.447 44 15 44 L 43 44 C 43.553 44 44 43.552 44 43 C 44 42.448 43.553 42 43 42 L 15 42 z M 47 42 C 46.447 42 46 42.448 46 43 C 46 43.552 46.447 44 47 44 L 51 44 C 51.553 44 52 43.552 52 43 C 52 42.448 51.553 42 51 42 L 47 42 z M 25 51.75 C 26.792 51.75 28.25 53.208 28.25 55 C 28.25 56.792 26.792 58.25 25 58.25 C 23.208 58.25 21.75 56.792 21.75 55 C 21.75 53.208 23.208 51.75 25 51.75 z M 45 51.792969 C 46.769 51.792969 48.207031 53.231 48.207031 55 C 48.207031 56.769 46.769 58.207031 45 58.207031 C 43.231 58.207031 41.792969 56.769 41.792969 55 C 41.792969 53.231 43.231 51.792969 45 51.792969 z"/>
</svg>
