<svg height="1114pt" preserveAspectRatio="xMidYMid meet" viewBox="0 0 1864 1114" width="1864pt" xmlns="http://www.w3.org/2000/svg"><g transform="matrix(.1 0 0 -.1 0 1114)"><path d="m2507 11119c-143-34-241-157-241-305 0-60 5-81 32-137 37-74 72-109 152-146l55-26 4708-3c3749-2 4707-5 4707-15 0-6-470-1888-1043-4182l-1043-4170-1611-3-1610-2-26 109c-255 1071-1421 1671-2441 1255-539-220-947-692-1082-1251l-27-113h-592-593l145 578c127 505 144 584 140 635-10 111-82 213-186 261-45 21-58 21-633 24-324 1-588 5-588 7 0 3 63 257 140 565 106 422 140 575 140 622 0 117-77 231-189 281-70 31-179 28-253-7-63-30-119-86-148-149-11-23-108-395-216-827-216-866-212-839-159-945 30-62 89-118 154-149 45-21 58-21 634-24 399-2 587-6 587-13 0-6-63-261-140-568-147-587-154-626-124-714 20-60 93-141 158-175l51-27 837-3 836-2 17-78c80-364 300-734 578-973 555-476 1318-581 1972-270 495 236 856 681 982 1212l26 109h2712 2713l17-78c80-364 294-725 573-967 552-481 1320-588 1977-276 495 236 856 680 982 1212l26 109 1021 2c1014 3 1021 3 1067 24 58 27 114 76 144 128 17 29 137 492 410 1586 346 1382 386 1551 382 1603-6 69-43 150-89 194-21 20-291 161-754 391l-721 360-739 1848c-815 2036-756 1904-872 1961l-57 28-1526 3-1527 2 145 578c125 497 144 585 140 633-10 112-75 207-175 256l-57 28-4930 2c-2848 0-4946-3-4968-8zm13328-3921c632-1581 725-1806 759-1845s109-79 700-375c363-181 662-331 664-333 1-1-138-567-311-1256l-313-1254-861-3-860-2-26 109c-84 355-287 693-560 931-652 572-1594 611-2289 93-356-265-592-642-692-1105l-6-28h-781c-739 0-781 1-777 18 3 9 389 1555 859 3435l854 3417h1460 1460zm-10825-4212c257-42 468-151 656-340 229-231 344-508 344-831 0-657-528-1185-1185-1185-323 0-600 115-831 344-355 352-452 857-255 1316 112 261 350 499 611 611 210 90 443 120 660 85zm9000 0c257-42 468-151 656-340 229-231 344-508 344-831 0-657-528-1185-1185-1185-323 0-600 115-831 344-234 233-354 518-354 842 0 306 117 596 332 820 267 278 661 411 1038 350z"/><path d="m1007 9619c-190-45-296-255-216-429 36-77 68-111 141-151l63-34h2330 2330l50 25c64 32 124 92 155 155 33 69 34 189 2 255-36 74-78 117-150 152l-67 33-2300 2c-1320 0-2316-3-2338-8z"/><path d="m1757 8119c-190-45-296-255-216-429 36-77 68-111 141-151l63-34h2705 2705l50 25c64 32 124 92 155 155 33 69 34 189 2 255-36 74-78 117-150 152l-67 33-2675 2c-1538 0-2691-3-2713-8z"/><path d="m213 6523c-61-21-137-94-170-161-23-48-28-69-27-132 1-125 61-221 176-282l43-23h2340 2340l51 27c107 57 168 156 168 278 1 99-27 163-100 229-97 89 146 81-2463 80-2029 0-2321-2-2358-16z"/></g></svg>